<svg xmlns="http://www.w3.org/2000/svg" viewBox="0 -177 388 268" width="388" height="268"><line x1="0" y1="0" x2="10" y2="0" stroke="black" stroke-width="1" /><line x1="10" y1="0" x2="20" y2="0" stroke="black" stroke-width="1" /><line x1="20" y1="0" x2="30" y2="0" stroke="black" stroke-width="1" /><line x1="30" y1="0" x2="40" y2="0" stroke="black" stroke-width="1" /><line x1="40" y1="0" x2="50" y2="0" stroke="black" stroke-width="1" /><line x1="50" y1="0" x2="60" y2="0" stroke="black" stroke-width="1" /><line x1="60" y1="0" x2="70" y2="0" stroke="black" stroke-width="1" /><line x1="70" y1="0" x2="80" y2="0" stroke="black" stroke-width="1" /><line x1="80" y1="0" x2="89" y2="4" stroke="black" stroke-width="1" /><line x1="89" y1="4" x2="98" y2="8" stroke="black" stroke-width="1" /><line x1="98" y1="8" x2="107" y2="13" stroke="black" stroke-width="1" /><line x1="107" y1="13" x2="116" y2="17" stroke="black" stroke-width="1" /><line x1="116" y1="17" x2="123" y2="25" stroke="black" stroke-width="1" /><line x1="123" y1="25" x2="129" y2="32" stroke="black" stroke-width="1" /><line x1="129" y1="32" x2="132" y2="42" stroke="black" stroke-width="1" /><line x1="132" y1="42" x2="134" y2="52" stroke="black" stroke-width="1" /><line x1="134" y1="52" x2="141" y2="59" stroke="black" stroke-width="1" /><line x1="129" y1="32" x2="136" y2="40" stroke="black" stroke-width="1" /><line x1="136" y1="40" x2="142" y2="48" stroke="black" stroke-width="1" /><line x1="142" y1="48" x2="151" y2="52" stroke="black" stroke-width="1" /><line x1="129" y1="32" x2="136" y2="40" stroke="black" stroke-width="1" /><line x1="136" y1="40" x2="142" y2="48" stroke="black" stroke-width="1" /><line x1="142" y1="48" x2="151" y2="52" stroke="black" stroke-width="1" /><line x1="151" y1="52" x2="160" y2="56" stroke="black" stroke-width="1" /><line x1="160" y1="56" x2="169" y2="60" stroke="black" stroke-width="1" /><line x1="169" y1="60" x2="178" y2="64" stroke="black" stroke-width="1" /><line x1="178" y1="64" x2="188" y2="64" stroke="black" stroke-width="1" /><line x1="142" y1="48" x2="145" y2="57" stroke="black" stroke-width="1" /><line x1="145" y1="57" x2="147" y2="67" stroke="black" stroke-width="1" /><line x1="147" y1="67" x2="154" y2="75" stroke="black" stroke-width="1" /><line x1="116" y1="17" x2="125" y2="21" stroke="black" stroke-width="1" /><line x1="125" y1="21" x2="134" y2="25" stroke="black" stroke-width="1" /><line x1="134" y1="25" x2="141" y2="33" stroke="black" stroke-width="1" /><line x1="141" y1="33" x2="147" y2="41" stroke="black" stroke-width="1" /><line x1="147" y1="41" x2="156" y2="45" stroke="black" stroke-width="1" /><line x1="134" y1="25" x2="143" y2="30" stroke="black" stroke-width="1" /><line x1="143" y1="30" x2="153" y2="34" stroke="black" stroke-width="1" /><line x1="153" y1="34" x2="163" y2="34" stroke="black" stroke-width="1" /><line x1="134" y1="25" x2="143" y2="30" stroke="black" stroke-width="1" /><line x1="143" y1="30" x2="153" y2="34" stroke="black" stroke-width="1" /><line x1="153" y1="34" x2="163" y2="34" stroke="black" stroke-width="1" /><line x1="163" y1="34" x2="173" y2="34" stroke="black" stroke-width="1" /><line x1="173" y1="34" x2="183" y2="34" stroke="black" stroke-width="1" /><line x1="183" y1="34" x2="193" y2="34" stroke="black" stroke-width="1" /><line x1="193" y1="34" x2="202" y2="30" stroke="black" stroke-width="1" /><line x1="153" y1="34" x2="159" y2="41" stroke="black" stroke-width="1" /><line x1="159" y1="41" x2="165" y2="49" stroke="black" stroke-width="1" /><line x1="165" y1="49" x2="174" y2="53" stroke="black" stroke-width="1" /><line x1="116" y1="17" x2="125" y2="21" stroke="black" stroke-width="1" /><line x1="125" y1="21" x2="134" y2="25" stroke="black" stroke-width="1" /><line x1="134" y1="25" x2="143" y2="30" stroke="black" stroke-width="1" /><line x1="143" y1="30" x2="153" y2="34" stroke="black" stroke-width="1" /><line x1="153" y1="34" x2="163" y2="34" stroke="black" stroke-width="1" /><line x1="163" y1="34" x2="173" y2="34" stroke="black" stroke-width="1" /><line x1="173" y1="34" x2="183" y2="34" stroke="black" stroke-width="1" /><line x1="183" y1="34" x2="193" y2="34" stroke="black" stroke-width="1" /><line x1="193" y1="34" x2="203" y2="34" stroke="black" stroke-width="1" /><line x1="203" y1="34" x2="213" y2="34" stroke="black" stroke-width="1" /><line x1="213" y1="34" x2="222" y2="38" stroke="black" stroke-width="1" /><line x1="222" y1="38" x2="231" y2="42" stroke="black" stroke-width="1" /><line x1="231" y1="42" x2="241" y2="42" stroke="black" stroke-width="1" /><line x1="213" y1="34" x2="223" y2="34" stroke="black" stroke-width="1" /><line x1="223" y1="34" x2="233" y2="34" stroke="black" stroke-width="1" /><line x1="233" y1="34" x2="242" y2="30" stroke="black" stroke-width="1" /><line x1="213" y1="34" x2="223" y2="34" stroke="black" stroke-width="1" /><line x1="223" y1="34" x2="233" y2="34" stroke="black" stroke-width="1" /><line x1="233" y1="34" x2="242" y2="30" stroke="black" stroke-width="1" /><line x1="242" y1="30" x2="251" y2="25" stroke="black" stroke-width="1" /><line x1="251" y1="25" x2="260" y2="21" stroke="black" stroke-width="1" /><line x1="260" y1="21" x2="269" y2="17" stroke="black" stroke-width="1" /><line x1="269" y1="17" x2="275" y2="9" stroke="black" stroke-width="1" /><line x1="233" y1="34" x2="242" y2="38" stroke="black" stroke-width="1" /><line x1="242" y1="38" x2="251" y2="42" stroke="black" stroke-width="1" /><line x1="251" y1="42" x2="261" y2="42" stroke="black" stroke-width="1" /><line x1="153" y1="34" x2="159" y2="41" stroke="black" stroke-width="1" /><line x1="159" y1="41" x2="165" y2="49" stroke="black" stroke-width="1" /><line x1="165" y1="49" x2="168" y2="59" stroke="black" stroke-width="1" /><line x1="168" y1="59" x2="171" y2="68" stroke="black" stroke-width="1" /><line x1="171" y1="68" x2="177" y2="76" stroke="black" stroke-width="1" /><line x1="165" y1="49" x2="172" y2="57" stroke="black" stroke-width="1" /><line x1="172" y1="57" x2="178" y2="64" stroke="black" stroke-width="1" /><line x1="178" y1="64" x2="187" y2="69" stroke="black" stroke-width="1" /><line x1="165" y1="49" x2="172" y2="57" stroke="black" stroke-width="1" /><line x1="172" y1="57" x2="178" y2="64" stroke="black" stroke-width="1" /><line x1="178" y1="64" x2="187" y2="69" stroke="black" stroke-width="1" /><line x1="187" y1="69" x2="196" y2="73" stroke="black" stroke-width="1" /><line x1="196" y1="73" x2="205" y2="77" stroke="black" stroke-width="1" /><line x1="205" y1="77" x2="214" y2="81" stroke="black" stroke-width="1" /><line x1="214" y1="81" x2="224" y2="81" stroke="black" stroke-width="1" /><line x1="178" y1="64" x2="181" y2="74" stroke="black" stroke-width="1" /><line x1="181" y1="74" x2="183" y2="84" stroke="black" stroke-width="1" /><line x1="183" y1="84" x2="190" y2="91" stroke="black" stroke-width="1" /><line x1="80" y1="0" x2="90" y2="0" stroke="black" stroke-width="1" /><line x1="90" y1="0" x2="100" y2="0" stroke="black" stroke-width="1" /><line x1="100" y1="0" x2="110" y2="0" stroke="black" stroke-width="1" /><line x1="110" y1="0" x2="120" y2="0" stroke="black" stroke-width="1" /><line x1="120" y1="0" x2="129" y2="4" stroke="black" stroke-width="1" /><line x1="129" y1="4" x2="138" y2="8" stroke="black" stroke-width="1" /><line x1="138" y1="8" x2="145" y2="16" stroke="black" stroke-width="1" /><line x1="145" y1="16" x2="151" y2="24" stroke="black" stroke-width="1" /><line x1="151" y1="24" x2="160" y2="28" stroke="black" stroke-width="1" /><line x1="138" y1="8" x2="147" y2="13" stroke="black" stroke-width="1" /><line x1="147" y1="13" x2="156" y2="17" stroke="black" stroke-width="1" /><line x1="156" y1="17" x2="166" y2="17" stroke="black" stroke-width="1" /><line x1="138" y1="8" x2="147" y2="13" stroke="black" stroke-width="1" /><line x1="147" y1="13" x2="156" y2="17" stroke="black" stroke-width="1" /><line x1="156" y1="17" x2="166" y2="17" stroke="black" stroke-width="1" /><line x1="166" y1="17" x2="176" y2="17" stroke="black" stroke-width="1" /><line x1="176" y1="17" x2="186" y2="17" stroke="black" stroke-width="1" /><line x1="186" y1="17" x2="196" y2="17" stroke="black" stroke-width="1" /><line x1="196" y1="17" x2="205" y2="13" stroke="black" stroke-width="1" /><line x1="156" y1="17" x2="163" y2="25" stroke="black" stroke-width="1" /><line x1="163" y1="25" x2="169" y2="32" stroke="black" stroke-width="1" /><line x1="169" y1="32" x2="178" y2="36" stroke="black" stroke-width="1" /><line x1="120" y1="0" x2="130" y2="0" stroke="black" stroke-width="1" /><line x1="130" y1="0" x2="140" y2="0" stroke="black" stroke-width="1" /><line x1="140" y1="0" x2="149" y2="4" stroke="black" stroke-width="1" /><line x1="149" y1="4" x2="158" y2="8" stroke="black" stroke-width="1" /><line x1="158" y1="8" x2="168" y2="8" stroke="black" stroke-width="1" /><line x1="140" y1="0" x2="150" y2="0" stroke="black" stroke-width="1" /><line x1="150" y1="0" x2="160" y2="0" stroke="black" stroke-width="1" /><line x1="160" y1="0" x2="169" y2="-4" stroke="black" stroke-width="1" /><line x1="140" y1="0" x2="150" y2="0" stroke="black" stroke-width="1" /><line x1="150" y1="0" x2="160" y2="0" stroke="black" stroke-width="1" /><line x1="160" y1="0" x2="169" y2="-4" stroke="black" stroke-width="1" /><line x1="169" y1="-4" x2="178" y2="-8" stroke="black" stroke-width="1" /><line x1="178" y1="-8" x2="187" y2="-13" stroke="black" stroke-width="1" /><line x1="187" y1="-13" x2="196" y2="-17" stroke="black" stroke-width="1" /><line x1="196" y1="-17" x2="203" y2="-25" stroke="black" stroke-width="1" /><line x1="160" y1="0" x2="169" y2="4" stroke="black" stroke-width="1" /><line x1="169" y1="4" x2="178" y2="8" stroke="black" stroke-width="1" /><line x1="178" y1="8" x2="188" y2="8" stroke="black" stroke-width="1" /><line x1="120" y1="0" x2="130" y2="0" stroke="black" stroke-width="1" /><line x1="130" y1="0" x2="140" y2="0" stroke="black" stroke-width="1" /><line x1="140" y1="0" x2="150" y2="0" stroke="black" stroke-width="1" /><line x1="150" y1="0" x2="160" y2="0" stroke="black" stroke-width="1" /><line x1="160" y1="0" x2="169" y2="-4" stroke="black" stroke-width="1" /><line x1="169" y1="-4" x2="178" y2="-8" stroke="black" stroke-width="1" /><line x1="178" y1="-8" x2="187" y2="-13" stroke="black" stroke-width="1" /><line x1="187" y1="-13" x2="196" y2="-17" stroke="black" stroke-width="1" /><line x1="196" y1="-17" x2="205" y2="-21" stroke="black" stroke-width="1" /><line x1="205" y1="-21" x2="214" y2="-25" stroke="black" stroke-width="1" /><line x1="214" y1="-25" x2="224" y2="-25" stroke="black" stroke-width="1" /><line x1="224" y1="-25" x2="234" y2="-25" stroke="black" stroke-width="1" /><line x1="234" y1="-25" x2="243" y2="-30" stroke="black" stroke-width="1" /><line x1="214" y1="-25" x2="223" y2="-30" stroke="black" stroke-width="1" /><line x1="223" y1="-30" x2="233" y2="-34" stroke="black" stroke-width="1" /><line x1="233" y1="-34" x2="239" y2="-41" stroke="black" stroke-width="1" /><line x1="214" y1="-25" x2="223" y2="-30" stroke="black" stroke-width="1" /><line x1="223" y1="-30" x2="233" y2="-34" stroke="black" stroke-width="1" /><line x1="233" y1="-34" x2="239" y2="-41" stroke="black" stroke-width="1" /><line x1="239" y1="-41" x2="245" y2="-49" stroke="black" stroke-width="1" /><line x1="245" y1="-49" x2="252" y2="-57" stroke="black" stroke-width="1" /><line x1="252" y1="-57" x2="258" y2="-64" stroke="black" stroke-width="1" /><line x1="258" y1="-64" x2="261" y2="-74" stroke="black" stroke-width="1" /><line x1="233" y1="-34" x2="243" y2="-34" stroke="black" stroke-width="1" /><line x1="243" y1="-34" x2="253" y2="-34" stroke="black" stroke-width="1" /><line x1="253" y1="-34" x2="262" y2="-38" stroke="black" stroke-width="1" /><line x1="160" y1="0" x2="169" y2="4" stroke="black" stroke-width="1" /><line x1="169" y1="4" x2="178" y2="8" stroke="black" stroke-width="1" /><line x1="178" y1="8" x2="185" y2="16" stroke="black" stroke-width="1" /><line x1="185" y1="16" x2="191" y2="24" stroke="black" stroke-width="1" /><line x1="191" y1="24" x2="200" y2="28" stroke="black" stroke-width="1" /><line x1="178" y1="8" x2="187" y2="13" stroke="black" stroke-width="1" /><line x1="187" y1="13" x2="196" y2="17" stroke="black" stroke-width="1" /><line x1="196" y1="17" x2="206" y2="17" stroke="black" stroke-width="1" /><line x1="178" y1="8" x2="187" y2="13" stroke="black" stroke-width="1" /><line x1="187" y1="13" x2="196" y2="17" stroke="black" stroke-width="1" /><line x1="196" y1="17" x2="206" y2="17" stroke="black" stroke-width="1" /><line x1="206" y1="17" x2="216" y2="17" stroke="black" stroke-width="1" /><line x1="216" y1="17" x2="226" y2="17" stroke="black" stroke-width="1" /><line x1="226" y1="17" x2="236" y2="17" stroke="black" stroke-width="1" /><line x1="236" y1="17" x2="245" y2="13" stroke="black" stroke-width="1" /><line x1="196" y1="17" x2="203" y2="25" stroke="black" stroke-width="1" /><line x1="203" y1="25" x2="209" y2="32" stroke="black" stroke-width="1" /><line x1="209" y1="32" x2="218" y2="36" stroke="black" stroke-width="1" /><line x1="80" y1="0" x2="90" y2="0" stroke="black" stroke-width="1" /><line x1="90" y1="0" x2="100" y2="0" stroke="black" stroke-width="1" /><line x1="100" y1="0" x2="110" y2="0" stroke="black" stroke-width="1" /><line x1="110" y1="0" x2="120" y2="0" stroke="black" stroke-width="1" /><line x1="120" y1="0" x2="130" y2="0" stroke="black" stroke-width="1" /><line x1="130" y1="0" x2="140" y2="0" stroke="black" stroke-width="1" /><line x1="140" y1="0" x2="150" y2="0" stroke="black" stroke-width="1" /><line x1="150" y1="0" x2="160" y2="0" stroke="black" stroke-width="1" /><line x1="160" y1="0" x2="169" y2="-4" stroke="black" stroke-width="1" /><line x1="169" y1="-4" x2="178" y2="-8" stroke="black" stroke-width="1" /><line x1="178" y1="-8" x2="187" y2="-13" stroke="black" stroke-width="1" /><line x1="187" y1="-13" x2="196" y2="-17" stroke="black" stroke-width="1" /><line x1="196" y1="-17" x2="205" y2="-21" stroke="black" stroke-width="1" /><line x1="205" y1="-21" x2="214" y2="-25" stroke="black" stroke-width="1" /><line x1="214" y1="-25" x2="223" y2="-30" stroke="black" stroke-width="1" /><line x1="223" y1="-30" x2="233" y2="-34" stroke="black" stroke-width="1" /><line x1="233" y1="-34" x2="242" y2="-38" stroke="black" stroke-width="1" /><line x1="242" y1="-38" x2="251" y2="-42" stroke="black" stroke-width="1" /><line x1="251" y1="-42" x2="260" y2="-46" stroke="black" stroke-width="1" /><line x1="260" y1="-46" x2="269" y2="-51" stroke="black" stroke-width="1" /><line x1="269" y1="-51" x2="279" y2="-51" stroke="black" stroke-width="1" /><line x1="279" y1="-51" x2="289" y2="-51" stroke="black" stroke-width="1" /><line x1="289" y1="-51" x2="298" y2="-46" stroke="black" stroke-width="1" /><line x1="298" y1="-46" x2="307" y2="-42" stroke="black" stroke-width="1" /><line x1="307" y1="-42" x2="317" y2="-42" stroke="black" stroke-width="1" /><line x1="289" y1="-51" x2="299" y2="-51" stroke="black" stroke-width="1" /><line x1="299" y1="-51" x2="309" y2="-51" stroke="black" stroke-width="1" /><line x1="309" y1="-51" x2="318" y2="-55" stroke="black" stroke-width="1" /><line x1="289" y1="-51" x2="299" y2="-51" stroke="black" stroke-width="1" /><line x1="299" y1="-51" x2="309" y2="-51" stroke="black" stroke-width="1" /><line x1="309" y1="-51" x2="318" y2="-55" stroke="black" stroke-width="1" /><line x1="318" y1="-55" x2="327" y2="-59" stroke="black" stroke-width="1" /><line x1="327" y1="-59" x2="336" y2="-63" stroke="black" stroke-width="1" /><line x1="336" y1="-63" x2="345" y2="-68" stroke="black" stroke-width="1" /><line x1="345" y1="-68" x2="351" y2="-75" stroke="black" stroke-width="1" /><line x1="309" y1="-51" x2="318" y2="-46" stroke="black" stroke-width="1" /><line x1="318" y1="-46" x2="327" y2="-42" stroke="black" stroke-width="1" /><line x1="327" y1="-42" x2="337" y2="-42" stroke="black" stroke-width="1" /><line x1="269" y1="-51" x2="278" y2="-55" stroke="black" stroke-width="1" /><line x1="278" y1="-55" x2="287" y2="-59" stroke="black" stroke-width="1" /><line x1="287" y1="-59" x2="297" y2="-59" stroke="black" stroke-width="1" /><line x1="297" y1="-59" x2="307" y2="-59" stroke="black" stroke-width="1" /><line x1="307" y1="-59" x2="316" y2="-63" stroke="black" stroke-width="1" /><line x1="287" y1="-59" x2="296" y2="-63" stroke="black" stroke-width="1" /><line x1="296" y1="-63" x2="305" y2="-68" stroke="black" stroke-width="1" /><line x1="305" y1="-68" x2="311" y2="-75" stroke="black" stroke-width="1" /><line x1="287" y1="-59" x2="296" y2="-63" stroke="black" stroke-width="1" /><line x1="296" y1="-63" x2="305" y2="-68" stroke="black" stroke-width="1" /><line x1="305" y1="-68" x2="311" y2="-75" stroke="black" stroke-width="1" /><line x1="311" y1="-75" x2="318" y2="-83" stroke="black" stroke-width="1" /><line x1="318" y1="-83" x2="324" y2="-91" stroke="black" stroke-width="1" /><line x1="324" y1="-91" x2="331" y2="-98" stroke="black" stroke-width="1" /><line x1="331" y1="-98" x2="333" y2="-108" stroke="black" stroke-width="1" /><line x1="305" y1="-68" x2="315" y2="-68" stroke="black" stroke-width="1" /><line x1="315" y1="-68" x2="325" y2="-68" stroke="black" stroke-width="1" /><line x1="325" y1="-68" x2="334" y2="-72" stroke="black" stroke-width="1" /><line x1="269" y1="-51" x2="278" y2="-55" stroke="black" stroke-width="1" /><line x1="278" y1="-55" x2="287" y2="-59" stroke="black" stroke-width="1" /><line x1="287" y1="-59" x2="296" y2="-63" stroke="black" stroke-width="1" /><line x1="296" y1="-63" x2="305" y2="-68" stroke="black" stroke-width="1" /><line x1="305" y1="-68" x2="311" y2="-75" stroke="black" stroke-width="1" /><line x1="311" y1="-75" x2="318" y2="-83" stroke="black" stroke-width="1" /><line x1="318" y1="-83" x2="324" y2="-91" stroke="black" stroke-width="1" /><line x1="324" y1="-91" x2="331" y2="-98" stroke="black" stroke-width="1" /><line x1="331" y1="-98" x2="337" y2="-106" stroke="black" stroke-width="1" /><line x1="337" y1="-106" x2="344" y2="-114" stroke="black" stroke-width="1" /><line x1="344" y1="-114" x2="353" y2="-118" stroke="black" stroke-width="1" /><line x1="353" y1="-118" x2="362" y2="-122" stroke="black" stroke-width="1" /><line x1="362" y1="-122" x2="368" y2="-130" stroke="black" stroke-width="1" /><line x1="344" y1="-114" x2="350" y2="-121" stroke="black" stroke-width="1" /><line x1="350" y1="-121" x2="356" y2="-129" stroke="black" stroke-width="1" /><line x1="356" y1="-129" x2="359" y2="-139" stroke="black" stroke-width="1" /><line x1="344" y1="-114" x2="350" y2="-121" stroke="black" stroke-width="1" /><line x1="350" y1="-121" x2="356" y2="-129" stroke="black" stroke-width="1" /><line x1="356" y1="-129" x2="359" y2="-139" stroke="black" stroke-width="1" /><line x1="359" y1="-139" x2="362" y2="-148" stroke="black" stroke-width="1" /><line x1="362" y1="-148" x2="364" y2="-158" stroke="black" stroke-width="1" /><line x1="364" y1="-158" x2="367" y2="-168" stroke="black" stroke-width="1" /><line x1="367" y1="-168" x2="365" y2="-177" stroke="black" stroke-width="1" /><line x1="356" y1="-129" x2="365" y2="-133" stroke="black" stroke-width="1" /><line x1="365" y1="-133" x2="375" y2="-137" stroke="black" stroke-width="1" /><line x1="375" y1="-137" x2="381" y2="-145" stroke="black" stroke-width="1" /><line x1="305" y1="-68" x2="315" y2="-68" stroke="black" stroke-width="1" /><line x1="315" y1="-68" x2="325" y2="-68" stroke="black" stroke-width="1" /><line x1="325" y1="-68" x2="334" y2="-63" stroke="black" stroke-width="1" /><line x1="334" y1="-63" x2="343" y2="-59" stroke="black" stroke-width="1" /><line x1="343" y1="-59" x2="353" y2="-59" stroke="black" stroke-width="1" /><line x1="325" y1="-68" x2="335" y2="-68" stroke="black" stroke-width="1" /><line x1="335" y1="-68" x2="345" y2="-68" stroke="black" stroke-width="1" /><line x1="345" y1="-68" x2="354" y2="-72" stroke="black" stroke-width="1" /><line x1="325" y1="-68" x2="335" y2="-68" stroke="black" stroke-width="1" /><line x1="335" y1="-68" x2="345" y2="-68" stroke="black" stroke-width="1" /><line x1="345" y1="-68" x2="354" y2="-72" stroke="black" stroke-width="1" /><line x1="354" y1="-72" x2="363" y2="-76" stroke="black" stroke-width="1" /><line x1="363" y1="-76" x2="372" y2="-80" stroke="black" stroke-width="1" /><line x1="372" y1="-80" x2="381" y2="-85" stroke="black" stroke-width="1" /><line x1="381" y1="-85" x2="388" y2="-92" stroke="black" stroke-width="1" /><line x1="345" y1="-68" x2="354" y2="-63" stroke="black" stroke-width="1" /><line x1="354" y1="-63" x2="363" y2="-59" stroke="black" stroke-width="1" /><line x1="363" y1="-59" x2="373" y2="-59" stroke="black" stroke-width="1" /><line x1="160" y1="0" x2="169" y2="4" stroke="black" stroke-width="1" /><line x1="169" y1="4" x2="178" y2="8" stroke="black" stroke-width="1" /><line x1="178" y1="8" x2="187" y2="13" stroke="black" stroke-width="1" /><line x1="187" y1="13" x2="196" y2="17" stroke="black" stroke-width="1" /><line x1="196" y1="17" x2="203" y2="25" stroke="black" stroke-width="1" /><line x1="203" y1="25" x2="209" y2="32" stroke="black" stroke-width="1" /><line x1="209" y1="32" x2="212" y2="42" stroke="black" stroke-width="1" /><line x1="212" y1="42" x2="214" y2="52" stroke="black" stroke-width="1" /><line x1="214" y1="52" x2="221" y2="59" stroke="black" stroke-width="1" /><line x1="209" y1="32" x2="216" y2="40" stroke="black" stroke-width="1" /><line x1="216" y1="40" x2="222" y2="48" stroke="black" stroke-width="1" /><line x1="222" y1="48" x2="231" y2="52" stroke="black" stroke-width="1" /><line x1="209" y1="32" x2="216" y2="40" stroke="black" stroke-width="1" /><line x1="216" y1="40" x2="222" y2="48" stroke="black" stroke-width="1" /><line x1="222" y1="48" x2="231" y2="52" stroke="black" stroke-width="1" /><line x1="231" y1="52" x2="240" y2="56" stroke="black" stroke-width="1" /><line x1="240" y1="56" x2="249" y2="60" stroke="black" stroke-width="1" /><line x1="249" y1="60" x2="258" y2="64" stroke="black" stroke-width="1" /><line x1="258" y1="64" x2="268" y2="64" stroke="black" stroke-width="1" /><line x1="222" y1="48" x2="225" y2="57" stroke="black" stroke-width="1" /><line x1="225" y1="57" x2="227" y2="67" stroke="black" stroke-width="1" /><line x1="227" y1="67" x2="234" y2="75" stroke="black" stroke-width="1" /><line x1="196" y1="17" x2="205" y2="21" stroke="black" stroke-width="1" /><line x1="205" y1="21" x2="214" y2="25" stroke="black" stroke-width="1" /><line x1="214" y1="25" x2="221" y2="33" stroke="black" stroke-width="1" /><line x1="221" y1="33" x2="227" y2="41" stroke="black" stroke-width="1" /><line x1="227" y1="41" x2="236" y2="45" stroke="black" stroke-width="1" /><line x1="214" y1="25" x2="223" y2="30" stroke="black" stroke-width="1" /><line x1="223" y1="30" x2="233" y2="34" stroke="black" stroke-width="1" /><line x1="233" y1="34" x2="243" y2="34" stroke="black" stroke-width="1" /><line x1="214" y1="25" x2="223" y2="30" stroke="black" stroke-width="1" /><line x1="223" y1="30" x2="233" y2="34" stroke="black" stroke-width="1" /><line x1="233" y1="34" x2="243" y2="34" stroke="black" stroke-width="1" /><line x1="243" y1="34" x2="253" y2="34" stroke="black" stroke-width="1" /><line x1="253" y1="34" x2="263" y2="34" stroke="black" stroke-width="1" /><line x1="263" y1="34" x2="273" y2="34" stroke="black" stroke-width="1" /><line x1="273" y1="34" x2="282" y2="30" stroke="black" stroke-width="1" /><line x1="233" y1="34" x2="239" y2="41" stroke="black" stroke-width="1" /><line x1="239" y1="41" x2="245" y2="49" stroke="black" stroke-width="1" /><line x1="245" y1="49" x2="254" y2="53" stroke="black" stroke-width="1" /><line x1="196" y1="17" x2="205" y2="21" stroke="black" stroke-width="1" /><line x1="205" y1="21" x2="214" y2="25" stroke="black" stroke-width="1" /><line x1="214" y1="25" x2="223" y2="30" stroke="black" stroke-width="1" /><line x1="223" y1="30" x2="233" y2="34" stroke="black" stroke-width="1" /><line x1="233" y1="34" x2="243" y2="34" stroke="black" stroke-width="1" /><line x1="243" y1="34" x2="253" y2="34" stroke="black" stroke-width="1" /><line x1="253" y1="34" x2="263" y2="34" stroke="black" stroke-width="1" /><line x1="263" y1="34" x2="273" y2="34" stroke="black" stroke-width="1" /><line x1="273" y1="34" x2="283" y2="34" stroke="black" stroke-width="1" /><line x1="283" y1="34" x2="293" y2="34" stroke="black" stroke-width="1" /><line x1="293" y1="34" x2="302" y2="38" stroke="black" stroke-width="1" /><line x1="302" y1="38" x2="311" y2="42" stroke="black" stroke-width="1" /><line x1="311" y1="42" x2="321" y2="42" stroke="black" stroke-width="1" /><line x1="293" y1="34" x2="303" y2="34" stroke="black" stroke-width="1" /><line x1="303" y1="34" x2="313" y2="34" stroke="black" stroke-width="1" /><line x1="313" y1="34" x2="322" y2="30" stroke="black" stroke-width="1" /><line x1="293" y1="34" x2="303" y2="34" stroke="black" stroke-width="1" /><line x1="303" y1="34" x2="313" y2="34" stroke="black" stroke-width="1" /><line x1="313" y1="34" x2="322" y2="30" stroke="black" stroke-width="1" /><line x1="322" y1="30" x2="331" y2="25" stroke="black" stroke-width="1" /><line x1="331" y1="25" x2="340" y2="21" stroke="black" stroke-width="1" /><line x1="340" y1="21" x2="349" y2="17" stroke="black" stroke-width="1" /><line x1="349" y1="17" x2="355" y2="9" stroke="black" stroke-width="1" /><line x1="313" y1="34" x2="322" y2="38" stroke="black" stroke-width="1" /><line x1="322" y1="38" x2="331" y2="42" stroke="black" stroke-width="1" /><line x1="331" y1="42" x2="341" y2="42" stroke="black" stroke-width="1" /><line x1="233" y1="34" x2="239" y2="41" stroke="black" stroke-width="1" /><line x1="239" y1="41" x2="245" y2="49" stroke="black" stroke-width="1" /><line x1="245" y1="49" x2="248" y2="59" stroke="black" stroke-width="1" /><line x1="248" y1="59" x2="251" y2="68" stroke="black" stroke-width="1" /><line x1="251" y1="68" x2="257" y2="76" stroke="black" stroke-width="1" /><line x1="245" y1="49" x2="252" y2="57" stroke="black" stroke-width="1" /><line x1="252" y1="57" x2="258" y2="64" stroke="black" stroke-width="1" /><line x1="258" y1="64" x2="267" y2="69" stroke="black" stroke-width="1" /><line x1="245" y1="49" x2="252" y2="57" stroke="black" stroke-width="1" /><line x1="252" y1="57" x2="258" y2="64" stroke="black" stroke-width="1" /><line x1="258" y1="64" x2="267" y2="69" stroke="black" stroke-width="1" /><line x1="267" y1="69" x2="276" y2="73" stroke="black" stroke-width="1" /><line x1="276" y1="73" x2="285" y2="77" stroke="black" stroke-width="1" /><line x1="285" y1="77" x2="294" y2="81" stroke="black" stroke-width="1" /><line x1="294" y1="81" x2="304" y2="81" stroke="black" stroke-width="1" /><line x1="258" y1="64" x2="261" y2="74" stroke="black" stroke-width="1" /><line x1="261" y1="74" x2="263" y2="84" stroke="black" stroke-width="1" /><line x1="263" y1="84" x2="270" y2="91" stroke="black" stroke-width="1" /></svg>